#!OML:ASF X:\für Bonn\!DataBase\2005_08_12_Daniel\c3d\Daniel.ASF
:FULLY-SPECIFIED
:DEGREES
1898
root -9.47317 16.7214 6.34715 -367.41 -46.8552 -361.945
lowerback 13.8823 -1.6024 -1.96777
upperback 3.62616 -2.49901 -0.568124
thorax -3.8937 -1.25882 0.93979
lowerneck -7.08703 4.34661 -5.64419
upperneck 2.21162 6.35871 -2.3846
head 1.79353 3.03526 0.42745
rclavicle -2.26615e-014 1.19271e-015
rhumerus -58.0249 6.39677 -97.6866
rradius 73.276
rwrist -0.404901
rhand -27.5956 28.6699
rfingers 7.12502
rthumb -0.995329 -1.30747
lclavicle -2.26615e-014 1.19271e-015
lhumerus -47.326 8.8279 93.179
lradius 116.304
lwrist 7.62695
lhand -17.9954 -9.33256
lfingers 7.12502
lthumb 8.27475 20.4854
rfemur -16.7903 -1.63371 22.1601
rtibia 79.4597
rfoot -8.96637 -4.1178
rtoes -10.3076
lfemur -0.582972 -0.416297 -23.8579
ltibia 49.7818
lfoot -35.0924 -0.0710077
ltoes -2.23997
1899
root -9.68761 16.8067 6.55804 -366.91 -46.5851 -362.583
lowerback 13.6612 -1.94963 -1.5188
upperback 3.49976 -2.88403 -0.47742
thorax -3.91284 -1.44906 0.840518
lowerneck -6.93236 4.5534 -5.43912
upperneck 2.63038 6.63035 -2.53159
head 1.91005 3.15679 0.359985
rclavicle -1.35671e-014 3.18055e-015
rhumerus -58.8984 6.51133 -97.3301
rradius 72.7201
rwrist -0.838375
rhand -27.3731 28.7351
rfingers 7.12502
rthumb -0.780482 -1.24319
lclavicle -1.35671e-014 3.18055e-015
lhumerus -46.223 8.80726 94.0851
lradius 116.508
lwrist 8.76644
lhand -19.598 -9.09241
lfingers 7.12502
lthumb 6.72785 20.7807
rfemur -17.8893 -1.8269 22.8342
rtibia 78.3282
rfoot -9.20521 -4.74061
rtoes -9.63403
lfemur 1.13227 -0.860047 -23.5282
ltibia 48.4926
lfoot -34.3833 0.173459
ltoes -3.24715
1900
root -9.90548 16.9079 6.77211 -366.433 -46.2867 -363.143
lowerback 13.337 -2.29046 -1.0902
upperback 3.38998 -3.26406 -0.386425
thorax -3.86132 -1.63814 0.745725
lowerneck -6.82636 4.74821 -5.31093
upperneck 3.11422 6.89791 -2.63597
head 2.05438 3.27392 0.321424
rclavicle 1.37932e-013 -1.86858e-014
rhumerus -59.6811 6.74894 -96.9524
rradius 72.3496
rwrist -1.04734
rhand -27.044 28.7256
rfingers 7.12502
rthumb -0.462614 -1.25365
lclavicle 1.37932e-013 -1.86858e-014
lhumerus -45.2824 8.43916 95.0037
lradius 116.849
lwrist 10.0692
lhand -21.1369 -8.73267
lfingers 7.12502
lthumb 5.24215 21.1825
rfemur -18.81 -2.00119 23.4586
rtibia 76.8404
rfoot -9.37198 -5.15848
rtoes -9.09601
lfemur 2.76063 -1.00278 -23.1013
ltibia 47.1866
lfoot -33.1862 0.153426
ltoes -4.54185
1901
root -10.1261 17.0191 6.98917 -365.987 -45.9766 -363.553
lowerback 12.853 -2.58558 -0.711036
upperback 3.306 -3.59302 -0.316385
thorax -3.69831 -1.80315 0.637354
lowerneck -6.81842 4.90569 -5.32464
upperneck 3.63981 7.13059 -2.6027
head 2.22206 3.37352 0.352592
rclavicle 8.21478e-014 5.1684e-015
rhumerus -60.3525 7.02635 -96.5251
rradius 72.1062
rwrist -1.00679
rhand -26.6745 28.7068
rfingers 7.12502
rthumb -0.105718 -1.27287
lclavicle 8.21478e-014 5.1684e-015
lhumerus -44.5441 7.63465 95.8629
lradius 117.317
lwrist 11.4484
lhand -22.5661 -8.39203
lfingers 7.12502
lthumb 3.86214 21.5527
rfemur -19.6363 -2.09771 23.9854
rtibia 75.0115
rfoot -9.37668 -5.29627
rtoes -8.9386
lfemur 4.2108 -0.923688 -22.664
ltibia 45.932
lfoot -31.4693 -0.0223346
ltoes -6.0534
1902
root -10.3497 17.1394 7.20995 -365.504 -45.6468 -363.893
lowerback 12.2484 -2.89539 -0.339404
upperback 3.18238 -3.94682 -0.270507
thorax -3.51456 -1.98005 0.502862
lowerneck -6.76613 5.08194 -5.33856
upperneck 4.17784 7.38381 -2.53487
head 2.38501 3.48429 0.394762
rclavicle -5.22307e-014 1.31198e-014
rhumerus -61.1253 7.4385 -96.144
rradius 71.8943
rwrist -0.693107
rhand -26.3518 28.8567
rfingers 7.12502
rthumb 0.205925 -1.12292
lclavicle -5.22307e-014 1.31198e-014
lhumerus -44.1439 6.62106 96.5727
lradius 117.858
lwrist 12.6823
lhand -23.5971 -8.19026
lfingers 7.12502
lthumb 2.86642 21.7702
rfemur -20.3784 -2.0768 24.4605
rtibia 72.8597
rfoot -9.15285 -5.27812
rtoes -8.7384
lfemur 5.39751 -0.885947 -22.229
ltibia 44.7955
lfoot -29.3532 -0.355189
ltoes -6.87673
1903
root -10.576 17.2679 7.43633 -364.949 -45.307 -364.234
lowerback 11.5376 -3.19398 0.0649117
upperback 3.0462 -4.28646 -0.20427
thorax -3.28948 -2.15021 0.358533
lowerneck -6.78146 5.24795 -5.38251
upperneck 4.79815 7.6315 -2.42371
head 2.58622 3.58956 0.460336
rclavicle 1.83876e-015 9.14409e-015
rhumerus -61.9259 7.89433 -95.7296
rradius 71.6867
rwrist -0.145552
rhand -26.1214 29.16
rfingers 7.12502
rthumb 0.428502 -0.819337
lclavicle 1.83876e-015 9.14409e-015
lhumerus -43.9371 5.40763 97.2087
lradius 118.366
lwrist 13.5984
lhand -24.2951 -8.15588
lfingers 7.12502
lthumb 2.19235 21.8126
rfemur -21.0205 -1.97644 24.9067
rtibia 70.4012
rfoot -8.67859 -5.23085
rtoes -8.33451
lfemur 6.32101 -0.92581 -21.7576
ltibia 43.81
lfoot -26.925 -0.781592
ltoes -6.91139
1904
root -10.8039 17.3957 7.66664 -364.385 -44.9579 -364.523
lowerback 10.7438 -3.49195 0.494976
upperback 2.8836 -4.631 -0.178203
thorax -3.05447 -2.32262 0.149432
lowerneck -6.66573 5.42608 -5.27752
upperneck 5.33524 7.87072 -2.34523
head 2.74326 3.69665 0.484816
rclavicle 7.73521e-014 -1.74931e-014
rhumerus -62.8226 8.3716 -95.3891
rradius 71.4746
rwrist 0.53719
rhand -26.0026 29.6211
rfingers 7.12502
rthumb 0.543214 -0.357949
lclavicle 7.73521e-014 -1.74931e-014
lhumerus -43.9273 4.08062 97.6711
lradius 118.811
lwrist 14.1637
lhand -24.4417 -8.32206
lfingers 7.12502
lthumb 2.05076 21.6478
rfemur -21.574 -1.81131 25.2635
rtibia 67.7102
rfoot -8.03581 -5.11461
rtoes -7.42789
lfemur 7.04802 -1.0525 -21.3762
ltibia 43.0048
lfoot -24.1846 -1.01181
ltoes -7.2507
1905
root -11.034 17.5224 7.90024 -363.803 -44.614 -364.808
lowerback 9.89535 -3.78612 0.911502
upperback 2.73269 -4.97945 -0.111497
thorax -2.77582 -2.49699 -0.0200412
lowerneck -6.62981 5.61306 -5.20112
upperneck 5.88577 8.13044 -2.27896
head 2.92002 3.8115 0.514825
rclavicle -2.8625e-014 -4.37326e-015
rhumerus -63.6547 8.925 -95.0233
rradius 71.1563
rwrist 1.25156
rhand -25.9464 30.1803
rfingers 7.12502
rthumb 0.597466 0.201429
lclavicle -2.8625e-014 -4.37326e-015
lhumerus -43.999 2.69068 98.0643
lradius 119.17
lwrist 14.3572
lhand -24.2482 -8.68032
lfingers 7.12502
lthumb 2.23763 21.2877
rfemur -22.017 -1.6011 25.5788
rtibia 64.822
rfoot -7.30556 -4.9138
rtoes -6.70672
lfemur 7.64189 -1.32355 -21.0847
ltibia 42.3734
lfoot -21.0876 -0.986699
ltoes -7.20318
1906
root -11.2633 17.6459 8.13109 -363.25 -44.2644 -365.046
lowerback 9.0488 -4.0563 1.29625
upperback 2.5659 -5.3076 -0.0589408
thorax -2.51567 -2.66078 -0.194463
lowerneck -6.5121 5.77753 -5.07042
upperneck 6.37104 8.3476 -2.23119
head 3.06396 3.90897 0.524116
rclavicle 3.08862e-014 -1.59028e-015
rhumerus -64.6059 9.48257 -94.715
rradius 70.8967
rwrist 1.83934
rhand -25.9964 30.7851
rfingers 7.12502
rthumb 0.549247 0.806025
lclavicle 3.08862e-014 -1.59028e-015
lhumerus -44.1684 1.16153 98.3117
lradius 119.484
lwrist 14.3078
lhand -23.5888 -9.27227
lfingers 7.12502
lthumb 2.87446 20.6881
rfemur -22.3854 -1.39198 25.831
rtibia 61.7789
rfoot -6.44595 -4.681
rtoes -6.55265
lfemur 8.08935 -1.50755 -20.7934
ltibia 41.9204
lfoot -17.8488 -0.890087
ltoes -7.16282
1907
root -11.4944 17.7664 8.35968 -362.718 -43.9321 -365.275
lowerback 8.24127 -4.31879 1.64422
upperback 2.39123 -5.63518 0.00499531
thorax -2.28304 -2.82406 -0.33955
lowerneck -6.33194 5.94487 -5.00585
upperneck 6.72671 8.56195 -2.15043
head 3.14774 4.00994 0.549267
rclavicle 5.56721e-014 -1.15295e-014
rhumerus -65.5263 10.1414 -94.5027
rradius 70.5962
rwrist 2.09177
rhand -26.0758 31.3818
rfingers 7.12502
rthumb 0.472491 1.40256
lclavicle 5.56721e-014 -1.15295e-014
lhumerus -44.4309 -0.444439 98.4323
lradius 119.854
lwrist 14.0773
lhand -22.6107 -9.84003
lfingers 7.12502
lthumb 3.81908 20.1055
rfemur -22.6712 -1.21158 26.0692
rtibia 58.6189
rfoot -5.52464 -4.38295
rtoes -7.61037
lfemur 8.45975 -1.53791 -20.4318
ltibia 41.6194
lfoot -14.7451 -0.833623
ltoes -7.60253
1908
root -11.7305 17.8789 8.58983 -362.24 -43.6 -365.461
lowerback 7.45748 -4.55654 1.94068
upperback 2.21281 -5.93981 0.0675909
thorax -2.06396 -2.97575 -0.4635
lowerneck -6.14048 6.09176 -4.9463
upperneck 7.07163 8.74747 -2.06435
head 3.22589 4.09724 0.575116
rclavicle -2.25124e-014 1.19271e-014
rhumerus -66.4422 10.774 -94.3636
rradius 70.2985
rwrist 2.10121
rhand -26.1592 31.8422
rfingers 7.12502
rthumb 0.392005 1.86282
lclavicle -2.25124e-014 1.19271e-014
lhumerus -44.6989 -2.15094 98.4145
lradius 120.198
lwrist 13.9098
lhand -21.3413 -10.4794
lfingers 7.12502
lthumb 5.0448 19.4405
rfemur -22.8587 -1.06128 26.2578
rtibia 55.3776
rfoot -4.70453 -3.97461
rtoes -9.35112
lfemur 8.79628 -1.41598 -20.0395
ltibia 41.4716
lfoot -11.9342 -0.812748
ltoes -8.24137
1909
root -11.9702 17.9812 8.82031 -361.832 -43.2904 -365.639
lowerback 6.69147 -4.7765 2.1799
upperback 2.08677 -6.2305 0.156467
thorax -1.79292 -3.12009 -0.537257
lowerneck -5.99924 6.23089 -4.85124
upperneck 7.35262 8.92601 -2.05377
head 3.2973 4.18045 0.571265
rclavicle 7.21837e-015 -6.75868e-015
rhumerus -67.2732 11.4699 -94.2664
rradius 69.9897
rwrist 1.74608
rhand -26.2176 32.2348
rfingers 7.12502
rthumb 0.335596 2.25533
lclavicle 7.21837e-015 -6.75868e-015
lhumerus -44.8678 -3.90734 98.2526
lradius 120.424
lwrist 13.8075
lhand -19.8889 -11.1666
lfingers 7.12502
lthumb 6.44703 18.7153
rfemur -22.8979 -0.831047 26.4276
rtibia 52.0813
rfoot -4.06224 -3.47517
rtoes -11.1998
lfemur 9.16288 -1.0727 -19.5476
ltibia 41.4536
lfoot -9.45523 -0.870468
ltoes -8.91317
1910
root -12.2122 18.0734 9.05209 -361.523 -42.9885 -365.791
lowerback 6.02799 -4.98512 2.38699
upperback 1.96934 -6.51013 0.230257
thorax -1.56859 -3.25884 -0.605888
lowerneck -5.83959 6.3663 -4.65282
upperneck 7.61263 9.09354 -2.1002
head 3.36635 4.25972 0.530504
rclavicle -2.9386e-014 -1.23246e-014
rhumerus -68.0941 12.0857 -94.2265
rradius 69.6964
rwrist 1.26881
rhand -26.2322 32.475
rfingers 7.12502
rthumb 0.321447 2.49546
lclavicle -2.9386e-014 -1.23246e-014
lhumerus -45.0223 -5.6778 98.0304
lradius 120.608
lwrist 13.8171
lhand -18.2079 -11.7752
lfingers 7.12502
lthumb 8.06966 18.0507
rfemur -22.7763 -0.470138 26.5504
rtibia 48.7727
rfoot -3.41346 -3.03132
rtoes -13.084
lfemur 9.56594 -0.58371 -18.998
ltibia 41.5761
lfoot -7.29366 -0.859145
ltoes -9.2531
1911
root -12.4527 18.1525 9.28638 -361.353 -42.7315 -365.891
lowerback 5.4968 -5.16835 2.55145
upperback 1.8856 -6.75838 0.302571
thorax -1.37808 -3.38188 -0.648593
lowerneck -5.76012 6.489 -4.43451
upperneck 7.90232 9.24928 -2.14389
head 3.46295 4.33233 0.49126
rclavicle -3.02184e-014 -9.93923e-015
rhumerus -68.8109 12.6964 -94.1845
rradius 69.3675
rwrist 0.566315
rhand -26.1836 32.5051
rfingers 7.12502
rthumb 0.368391 2.52572
lclavicle -3.02184e-014 -9.93923e-015
lhumerus -45.1411 -7.43414 97.8395
lradius 120.735
lwrist 13.8686
lhand -16.4092 -12.3135
lfingers 7.12502
lthumb 9.80539 17.4382
rfemur -22.5093 0.000711259 26.5792
rtibia 45.5157
rfoot -2.72214 -2.65873
rtoes -14.8006
lfemur 10.0437 0.0872032 -18.4091
ltibia 41.8332
lfoot -5.4386 -0.749052
ltoes -8.87468
